{
  "accessors": [
    {
      "bufferView": 2,
      "componentType": 5126,
      "count": 8458,
      "max": [
        10.770431518554688,
        10.770432472229004,
        10.770432472229004
      ],
      "min": [
        -10.770428657531738,
        -10.770429611206055,
        -10.770432472229004
      ],
      "type": "VEC3"
    },
    {
      "bufferView": 2,
      "byteOffset": 101496,
      "componentType": 5126,
      "count": 8458,
      "max": [
        1.0,
        1.0,
        1.0
      ],
      "min": [
        -1.0,
        -1.0,
        -1.0
      ],
      "type": "VEC3"
    },
    {
      "bufferView": 1,
      "componentType": 5126,
      "count": 8458,
      "max": [
        1.0,
        1.0
      ],
      "min": [
        0.0,
        0.0
      ],
      "type": "VEC2"
    },
    {
      "bufferView": 0,
      "componentType": 5125,
      "count": 47991,
      "type": "SCALAR"
    },
    {
      "bufferView": 2,
      "byteOffset": 202992,
      "componentType": 5126,
      "count": 2048,
      "max": [
        1.0105124711990356,
        1.0105128288269043,
        6.518794748444634e-08
      ],
      "min": [
        -1.0105127096176147,
        -1.0105129480361938,
        -6.658358131517161e-08
      ],
      "type": "VEC3"
    },
    {
      "bufferView": 2,
      "byteOffset": 227568,
      "componentType": 5126,
      "count": 2048,
      "max": [
        1.704935584712075e-06,
        2.7654928658193967e-07,
        1.0
      ],
      "min": [
        -4.366138909972506e-06,
        -5.790239356429083e-06,
        -1.0
      ],
      "type": "VEC3"
    },
    {
      "bufferView": 3,
      "componentType": 5126,
      "count": 2048,
      "max": [
        0.98527991771698,
        0.17098094522953033,
        4.81469987789751e-06,
        1.0
      ],
      "min": [
        -0.9996997714042664,
        -0.49294230341911316,
        -5.551442427531583e-06,
        1.0
      ],
      "type": "VEC4"
    },
    {
      "bufferView": 1,
      "byteOffset": 67664,
      "componentType": 5126,
      "count": 2048,
      "max": [
        0.999826192855835,
        0.9237047433853149
      ],
      "min": [
        0.00017382936493959278,
        0.00017382936493959278
      ],
      "type": "VEC2"
    },
    {
      "bufferView": 0,
      "byteOffset": 191964,
      "componentType": 5125,
      "count": 3072,
      "type": "SCALAR"
    }
  ],
  "asset": {
    "extras": {
      "author": "Shady Tex (https://sketchfab.com/ShadyTex4u)",
      "license": "CC-BY-4.0 (http://creativecommons.org/licenses/by/4.0/)",
      "source": "https://sketchfab.com/3d-models/realistic-saturn-8k-e7a4eecf7c114d06828a044c1c4f15ae",
      "title": "Realistic Saturn 8K"
    },
    "generator": "Sketchfab-15.36.0",
    "version": "2.0"
  },
  "bufferViews": [
    {
      "buffer": 0,
      "byteLength": 204252,
      "name": "floatBufferViews",
      "target": 34963
    },
    {
      "buffer": 0,
      "byteLength": 84048,
      "byteOffset": 204252,
      "byteStride": 8,
      "name": "floatBufferViews",
      "target": 34962
    },
    {
      "buffer": 0,
      "byteLength": 252144,
      "byteOffset": 288300,
      "byteStride": 12,
      "name": "floatBufferViews",
      "target": 34962
    },
    {
      "buffer": 0,
      "byteLength": 32768,
      "byteOffset": 540444,
      "byteStride": 16,
      "name": "floatBufferViews",
      "target": 34962
    }
  ],
  "buffers": [
    {
      "byteLength": 573212,
      "uri": "scene.bin"
    }
  ],
  "images": [
    {
      "uri": "textures/Planet_baseColor.jpeg"
    },
    {
      "uri": "textures/rings_baseColor.png"
    },
    {
      "uri": "textures/rings_normal.png"
    }
  ],
  "materials": [
    {
      "doubleSided": true,
      "name": "Planet",
      "pbrMetallicRoughness": {
        "baseColorTexture": {
          "index": 0
        },
        "metallicFactor": 0.0
      }
    },
    {
      "alphaMode": "BLEND",
      "doubleSided": true,
      "name": "rings",
      "normalTexture": {
        "index": 2
      },
      "pbrMetallicRoughness": {
        "baseColorTexture": {
          "index": 1
        },
        "metallicFactor": 0.0
      }
    }
  ],
  "meshes": [
    {
      "name": "saturn_Planet_0",
      "primitives": [
        {
          "attributes": {
            "NORMAL": 1,
            "POSITION": 0,
            "TEXCOORD_0": 2
          },
          "indices": 3,
          "material": 0,
          "mode": 4
        }
      ]
    },
    {
      "name": "ring_rings_0",
      "primitives": [
        {
          "attributes": {
            "NORMAL": 5,
            "POSITION": 4,
            "TANGENT": 6,
            "TEXCOORD_0": 7
          },
          "indices": 8,
          "material": 1,
          "mode": 4
        }
      ]
    }
  ],
  "nodes": [
    {
      "children": [
        1
      ],
      "matrix": [
        1.0,
        0.0,
        0.0,
        0.0,
        0.0,
        2.220446049250313e-16,
        -1.0,
        0.0,
        0.0,
        1.0,
        2.220446049250313e-16,
        0.0,
        0.0,
        0.0,
        0.0,
        1.0
      ],
      "name": "Sketchfab_model"
    },
    {
      "children": [
        2
      ],
      "matrix": [
        0.009999999776482582,
        0.0,
        0.0,
        0.0,
        0.0,
        0.0,
        0.009999999776482582,
        0.0,
        0.0,
        -0.009999999776482582,
        0.0,
        0.0,
        0.0,
        0.0,
        0.0,
        1.0
      ],
      "name": "3ac00a34a0ba440a9e898d3b3c11ef59.fbx"
    },
    {
      "children": [
        3,
        5
      ],
      "name": "RootNode"
    },
    {
      "children": [
        4
      ],
      "matrix": [
        98.06730300192834,
        -15.901970690336372,
        -11.398812919362419,
        0.0,
        3.2410981967760932,
        70.65857198763455,
        -70.68848199775634,
        0.0,
        19.295098648991196,
        68.95283584753605,
        69.80834904729123,
        0.0,
        0.0,
        0.0,
        0.0,
        1.0
      ],
      "name": "saturn"
    },
    {
      "mesh": 0,
      "name": "saturn_Planet_0"
    },
    {
      "children": [
        6
      ],
      "matrix": [
        -3315.720276326897,
        537.7038459993327,
        403.2778825130235,
        -0.0,
        -97.12263488011597,
        -2391.8875996486095,
        2390.648516995574,
        -0.0,
        -665.0756396689387,
        -2331.4173645072524,
        -2359.645151592148,
        -0.0,
        0.0,
        0.0,
        0.0,
        1.0
      ],
      "name": "ring"
    },
    {
      "mesh": 1,
      "name": "ring_rings_0"
    }
  ],
  "samplers": [
    {
      "magFilter": 9729,
      "minFilter": 9987,
      "wrapS": 10497,
      "wrapT": 10497
    }
  ],
  "scene": 0,
  "scenes": [
    {
      "name": "Sketchfab_Scene",
      "nodes": [
        0
      ]
    }
  ],
  "textures": [
    {
      "sampler": 0,
      "source": 0
    },
    {
      "sampler": 0,
      "source": 1
    },
    {
      "sampler": 0,
      "source": 2
    }
  ]
}
