{
  "accessors": [
    {
      "bufferView": 2,
      "componentType": 5126,
      "count": 1937,
      "max": [
        500.0000305175781,
        499.9999694824219,
        500.0000305175781
      ],
      "min": [
        -500.0000305175781,
        -499.9999694824219,
        -500.0000305175781
      ],
      "type": "VEC3"
    },
    {
      "bufferView": 2,
      "byteOffset": 23244,
      "componentType": 5126,
      "count": 1937,
      "max": [
        1.0,
        1.0,
        1.0
      ],
      "min": [
        -1.0,
        -1.0,
        -1.0
      ],
      "type": "VEC3"
    },
    {
      "bufferView": 1,
      "componentType": 5126,
      "count": 1937,
      "max": [
        1.0,
        0.9976071119308472
      ],
      "min": [
        0.00017100000695791095,
        0.0009149909019470215
      ],
      "type": "VEC2"
    },
    {
      "bufferView": 1,
      "byteOffset": 15496,
      "componentType": 5126,
      "count": 1937,
      "max": [
        1.0,
        0.9976071119308472
      ],
      "min": [
        0.00017100000695791095,
        0.0009149909019470215
      ],
      "type": "VEC2"
    },
    {
      "bufferView": 0,
      "componentType": 5125,
      "count": 9216,
      "type": "SCALAR"
    }
  ],
  "asset": {
    "extras": {
      "author": "mergeallrealities (https://sketchfab.com/mergeallrealities)",
      "license": "CC-BY-4.0 (http://creativecommons.org/licenses/by/4.0/)",
      "source": "https://sketchfab.com/3d-models/55-cancri-e637-99f53c404c7e4d4e8e71c8acff475b95",
      "title": "🀄🀄🀄🀄][55 Cancri E][🀄🀄🀄🀄][637<|"
    },
    "generator": "Sketchfab-14.1.0",
    "version": "2.0"
  },
  "bufferViews": [
    {
      "buffer": 0,
      "byteLength": 36864,
      "name": "floatBufferViews",
      "target": 34963
    },
    {
      "buffer": 0,
      "byteLength": 30992,
      "byteOffset": 36864,
      "byteStride": 8,
      "name": "floatBufferViews",
      "target": 34962
    },
    {
      "buffer": 0,
      "byteLength": 46488,
      "byteOffset": 67856,
      "byteStride": 12,
      "name": "floatBufferViews",
      "target": 34962
    }
  ],
  "buffers": [
    {
      "byteLength": 114344,
      "uri": "scene.bin"
    }
  ],
  "images": [
    {
      "uri": "textures/Default_OBJ_005_baseColor.jpeg"
    },
    {
      "uri": "textures/Default_OBJ_005_emissive.jpeg"
    }
  ],
  "materials": [
    {
      "emissiveFactor": [
        1.0,
        1.0,
        1.0
      ],
      "emissiveTexture": {
        "index": 1
      },
      "name": "Default_OBJ_005",
      "pbrMetallicRoughness": {
        "baseColorTexture": {
          "index": 0
        },
        "metallicFactor": 0.25,
        "roughnessFactor": 0.95
      }
    }
  ],
  "meshes": [
    {
      "name": "Cube_001",
      "primitives": [
        {
          "attributes": {
            "NORMAL": 1,
            "POSITION": 0,
            "TEXCOORD_0": 2,
            "TEXCOORD_1": 3
          },
          "indices": 4,
          "material": 0,
          "mode": 4
        }
      ]
    }
  ],
  "nodes": [
    {
      "children": [
        1
      ],
      "matrix": [
        1.0,
        0.0,
        0.0,
        0.0,
        0.0,
        2.220446049250313e-16,
        -1.0,
        0.0,
        0.0,
        1.0,
        2.220446049250313e-16,
        0.0,
        0.0,
        0.0,
        0.0,
        1.0
      ],
      "name": "Sketchfab_model"
    },
    {
      "children": [
        2
      ],
      "matrix": [
        0.009999999776482582,
        0.0,
        0.0,
        0.0,
        0.0,
        2.2204459996194763e-18,
        0.009999999776482582,
        0.0,
        0.0,
        -0.009999999776482582,
        2.2204459996194763e-18,
        0.0,
        0.0,
        0.0,
        0.0,
        1.0
      ],
      "name": "USDRoot"
    },
    {
      "children": [
        3
      ],
      "matrix": [
        0.29999998211860657,
        0.0,
        0.0,
        0.0,
        0.0,
        0.29999998211860657,
        0.0,
        0.0,
        0.0,
        0.0,
        0.29999998211860657,
        0.0,
        0.0,
        0.0,
        0.0,
        1.0
      ],
      "name": "Meshes"
    },
    {
      "children": [
        4
      ],
      "name": "Cube_008"
    },
    {
      "mesh": 0,
      "name": "Cube_001"
    }
  ],
  "samplers": [
    {
      "magFilter": 9729,
      "minFilter": 9987,
      "wrapS": 10497,
      "wrapT": 10497
    }
  ],
  "scene": 0,
  "scenes": [
    {
      "name": "Sketchfab_Scene",
      "nodes": [
        0
      ]
    }
  ],
  "textures": [
    {
      "sampler": 0,
      "source": 0
    },
    {
      "sampler": 0,
      "source": 1
    }
  ]
}
