{
  "accessors": [
    {
      "bufferView": 2,
      "componentType": 5126,
      "count": 8458,
      "max": [
        128.55795288085938,
        128.55796813964844,
        128.55796813964844
      ],
      "min": [
        -128.5579071044922,
        -128.55792236328125,
        -128.55796813964844
      ],
      "type": "VEC3"
    },
    {
      "bufferView": 2,
      "byteOffset": 101496,
      "componentType": 5126,
      "count": 8458,
      "max": [
        1.0,
        1.0,
        1.0
      ],
      "min": [
        -1.0,
        -1.0,
        -1.0
      ],
      "type": "VEC3"
    },
    {
      "bufferView": 1,
      "componentType": 5126,
      "count": 8458,
      "max": [
        1.0,
        1.0
      ],
      "min": [
        0.0,
        0.0
      ],
      "type": "VEC2"
    },
    {
      "bufferView": 0,
      "componentType": 5125,
      "count": 47958,
      "type": "SCALAR"
    }
  ],
  "asset": {
    "extras": {
      "author": "Shady Tex (https://sketchfab.com/ShadyTex4u)",
      "license": "CC-BY-4.0 (http://creativecommons.org/licenses/by/4.0/)",
      "source": "https://sketchfab.com/3d-models/realistic-jupiter-993ba62a539e4c308e9e3137df454ed6",
      "title": "Realistic Jupiter"
    },
    "generator": "Sketchfab-15.36.0",
    "version": "2.0"
  },
  "bufferViews": [
    {
      "buffer": 0,
      "byteLength": 191832,
      "name": "floatBufferViews",
      "target": 34963
    },
    {
      "buffer": 0,
      "byteLength": 67664,
      "byteOffset": 191832,
      "byteStride": 8,
      "name": "floatBufferViews",
      "target": 34962
    },
    {
      "buffer": 0,
      "byteLength": 202992,
      "byteOffset": 259496,
      "byteStride": 12,
      "name": "floatBufferViews",
      "target": 34962
    }
  ],
  "buffers": [
    {
      "byteLength": 462488,
      "uri": "scene.bin"
    }
  ],
  "images": [
    {
      "uri": "textures/Material_baseColor.jpeg"
    }
  ],
  "materials": [
    {
      "doubleSided": true,
      "name": "Material",
      "pbrMetallicRoughness": {
        "baseColorTexture": {
          "index": 0
        },
        "metallicFactor": 0.0
      }
    }
  ],
  "meshes": [
    {
      "name": "Sphere_Material_0",
      "primitives": [
        {
          "attributes": {
            "NORMAL": 1,
            "POSITION": 0,
            "TEXCOORD_0": 2
          },
          "indices": 3,
          "material": 0,
          "mode": 4
        }
      ]
    }
  ],
  "nodes": [
    {
      "children": [
        1
      ],
      "matrix": [
        1.0,
        6.842791131287157e-32,
        -2.832769343193999e-16,
        0.0,
        -2.832769343193999e-16,
        3.828568672208042e-16,
        -1.0,
        0.0,
        4.002661120305586e-32,
        1.0,
        3.828568672208042e-16,
        0.0,
        0.0,
        0.0,
        0.0,
        1.0
      ],
      "name": "Sketchfab_model"
    },
    {
      "children": [
        2
      ],
      "matrix": [
        0.009999999776482582,
        0.0,
        0.0,
        0.0,
        0.0,
        0.0,
        0.009999999776482582,
        0.0,
        0.0,
        -0.009999999776482582,
        0.0,
        0.0,
        0.0,
        0.0,
        0.0,
        1.0
      ],
      "name": "164f3ef3a5354d2d99363d985d381246.fbx"
    },
    {
      "children": [
        3
      ],
      "name": "RootNode"
    },
    {
      "children": [
        4
      ],
      "matrix": [
        101.0,
        0.0,
        0.0,
        0.0,
        0.0,
        -1.6454988618574973e-05,
        -100.99999999999866,
        0.0,
        0.0,
        100.99999999999866,
        -1.6454988618574973e-05,
        0.0,
        0.0,
        0.0,
        0.0,
        1.0
      ],
      "name": "Sphere"
    },
    {
      "mesh": 0,
      "name": "Sphere_Material_0"
    }
  ],
  "samplers": [
    {
      "magFilter": 9729,
      "minFilter": 9987,
      "wrapS": 10497,
      "wrapT": 10497
    }
  ],
  "scene": 0,
  "scenes": [
    {
      "name": "Sketchfab_Scene",
      "nodes": [
        0
      ]
    }
  ],
  "textures": [
    {
      "sampler": 0,
      "source": 0
    }
  ]
}
