{
  "accessors": [
    {
      "bufferView": 0,
      "componentType": 5126,
      "count": 2052,
      "max": [1.0000008344650269, 1.0000008344650269, 1.0000008344650269],
      "min": [-1.0, -1.0, -1.0],
      "type": "VEC3"
    },
    {
      "bufferView": 1,
      "componentType": 5125,
      "count": 4618,
      "type": "SCALAR"
    },
    {
      "bufferView": 2,
      "componentType": 5126,
      "count": 2052,
      "type": "VEC3"
    },
    {
      "bufferView": 3,
      "componentType": 5126,
      "count": 2052,
      "type": "VEC4"
    },
    {
      "bufferView": 4,
      "componentType": 5126,
      "count": 2052,
      "type": "VEC2"
    },
    {
      "bufferView": 5,
      "componentType": 5126,
      "count": 2052,
      "max": [1.0000008344650269, 1.0000008344650269, 1.0000008344650269],
      "min": [-1.0, -1.0, -1.0],
      "type": "VEC3"
    },
    {
      "bufferView": 6,
      "componentType": 5123,
      "count": 9,
      "type": "SCALAR"
    },
    {
      "bufferView": 7,
      "componentType": 5126,
      "count": 2052,
      "type": "VEC3"
    },
    {
      "bufferView": 8,
      "componentType": 5126,
      "count": 2052,
      "type": "VEC4"
    },
    {
      "bufferView": 9,
      "componentType": 5126,
      "count": 2052,
      "type": "VEC2"
    }
  ],
  "asset": {
    "version": "2.0"
  },
  "bufferViews": [
    {
      "buffer": 0,
      "byteLength": 24624,
      "target": 34962
    },
    {
      "buffer": 1,
      "byteLength": 18472,
      "target": 34963
    },
    {
      "buffer": 2,
      "byteLength": 24624,
      "target": 34962
    },
    {
      "buffer": 3,
      "byteLength": 32832,
      "target": 34962
    },
    {
      "buffer": 4,
      "byteLength": 16416,
      "target": 34962
    },
    {
      "buffer": 0,
      "byteLength": 24624,
      "target": 34962
    },
    {
      "buffer": 5,
      "byteLength": 18,
      "target": 34963
    },
    {
      "buffer": 2,
      "byteLength": 24624,
      "target": 34962
    },
    {
      "buffer": 3,
      "byteLength": 32832,
      "target": 34962
    },
    {
      "buffer": 4,
      "byteLength": 16416,
      "target": 34962
    }
  ],
  "buffers": [
    {
      "byteLength": 24624,
      "uri": "data:application/octet-stream;base64,"
    },
    {
      "byteLength": 18472,
      "uri": "data:application/octet-stream;base64,"
    },
    {
      "byteLength": 24624,
      "uri": "data:application/octet-stream;base64,"
    },
    {
      "byteLength": 32832,
      "uri": "data:application/octet-stream;base64,"
    },
    {
      "byteLength": 16416,
      "uri": "data:application/octet-stream;base64,"
    },
    {
      "byteLength": 18,
      "uri": "data:application/octet-stream;base64,"
    }
  ],
  "materials": [
    {
      "doubleSided": true,
      "name": "moon",
      "normalTexture": {
        "index": 0,
        "scale": 2
      },
      "emissiveFactor": [1.0, 1.0, 1.0],
      "emissiveTexture": {
        "index": 0
      },
      "pbrMetallicRoughness": {
        "baseColorTexture": { "index": 0 },
        "metallicFactor": 0,
        "metallicRoughnessTexture": { "index": 0 },
        "baseColorFactor": [1.0, 1.0, 1.0, 1.0]
      }
    }
  ],
  "images": [
    {
      "uri": "058dcbf242ab4ea987a226de79e658c9_RGB_moon_8k_color_brim16.jpeg"
    }
  ],
  "textures": [
    {
      "source": 0
    }
  ],
  "meshes": [
    {
      "name": "Moon",
      "primitives": [
        {
          "attributes": {
            "NORMAL": 2,
            "POSITION": 0,
            "TANGENT": 3,
            "TEXCOORD_0": 4
          },
          "indices": 1,
          "material": 0,
          "mode": 5
        },
        {
          "attributes": {
            "NORMAL": 7,
            "POSITION": 5,
            "TANGENT": 8,
            "TEXCOORD_0": 9
          },
          "indices": 6,
          "material": 0,
          "mode": 4
        }
      ]
    }
  ],
  "nodes": [
    {
      "mesh": 0,
      "name": "Moon"
    },
    {
      "children": [0],
      "name": "Moon",
      "rotation": [-0.7071067811865475, 0.0, 0.0, 0.7071067811865476],
      "scale": [1.0, 1.0, 1.0],
      "translation": [0.0, 0.0, 0.0]
    }
  ],
  "scene": 0,
  "scenes": [
    {
      "nodes": [1]
    }
  ]
}
