{
  "accessors": [
    {
      "bufferView": 2,
      "componentType": 5126,
      "count": 65532,
      "max": [
        1.6283763647079468,
        1.6815510988235474,
        1.197137713432312
      ],
      "min": [
        -1.6817022562026978,
        -1.1917614936828613,
        -1.694209098815918
      ],
      "type": "VEC3"
    },
    {
      "bufferView": 2,
      "byteOffset": 786384,
      "componentType": 5126,
      "count": 65532,
      "max": [
        0.9689391851425171,
        0.9999126195907593,
        0.7026370167732239
      ],
      "min": [
        -1.0,
        -0.7071067690849304,
        -0.9999034404754639
      ],
      "type": "VEC3"
    },
    {
      "bufferView": 3,
      "componentType": 5126,
      "count": 65532,
      "max": [
        1.0,
        0.716598391532898,
        1.0,
        1.0
      ],
      "min": [
        -0.7026511430740356,
        -0.4340575635433197,
        -0.7115484476089478,
        1.0
      ],
      "type": "VEC4"
    },
    {
      "bufferView": 1,
      "componentType": 5126,
      "count": 65532,
      "max": [
        0.6250001192092896,
        0.7500001192092896
      ],
      "min": [
        0.125,
        0.0
      ],
      "type": "VEC2"
    },
    {
      "bufferView": 1,
      "byteOffset": 524256,
      "componentType": 5126,
      "count": 65532,
      "max": [
        0.6250001192092896,
        0.7500001192092896
      ],
      "min": [
        0.125,
        0.0
      ],
      "type": "VEC2"
    },
    {
      "bufferView": 1,
      "byteOffset": 1048512,
      "componentType": 5126,
      "count": 65532,
      "max": [
        0.6250001192092896,
        0.7500001192092896
      ],
      "min": [
        0.125,
        0.0
      ],
      "type": "VEC2"
    },
    {
      "bufferView": 1,
      "byteOffset": 1572768,
      "componentType": 5126,
      "count": 65532,
      "max": [
        0.6250001192092896,
        0.7500001192092896
      ],
      "min": [
        0.125,
        0.0
      ],
      "type": "VEC2"
    },
    {
      "bufferView": 0,
      "componentType": 5125,
      "count": 383871,
      "type": "SCALAR"
    },
    {
      "bufferView": 2,
      "byteOffset": 1572768,
      "componentType": 5126,
      "count": 65532,
      "max": [
        1.6817039251327515,
        1.6817024946212769,
        1.685748815536499
      ],
      "min": [
        -1.6817022562026978,
        -1.3769826889038086,
        -1.6943695545196533
      ],
      "type": "VEC3"
    },
    {
      "bufferView": 2,
      "byteOffset": 2359152,
      "componentType": 5126,
      "count": 65532,
      "max": [
        1.0,
        1.0,
        0.9945460557937622
      ],
      "min": [
        -1.0,
        -0.822150468826294,
        -1.0
      ],
      "type": "VEC3"
    },
    {
      "bufferView": 3,
      "byteOffset": 1048512,
      "componentType": 5126,
      "count": 65532,
      "max": [
        1.0,
        0.813664972782135,
        1.0,
        1.0
      ],
      "min": [
        -1.0,
        -0.8078729510307312,
        -0.6246814131736755,
        1.0
      ],
      "type": "VEC4"
    },
    {
      "bufferView": 1,
      "byteOffset": 2097024,
      "componentType": 5126,
      "count": 65532,
      "max": [
        0.8536932468414307,
        1.0000001192092896
      ],
      "min": [
        0.12642045319080353,
        0.0
      ],
      "type": "VEC2"
    },
    {
      "bufferView": 1,
      "byteOffset": 2621280,
      "componentType": 5126,
      "count": 65532,
      "max": [
        0.8536932468414307,
        1.0000001192092896
      ],
      "min": [
        0.12642045319080353,
        0.0
      ],
      "type": "VEC2"
    },
    {
      "bufferView": 1,
      "byteOffset": 3145536,
      "componentType": 5126,
      "count": 65532,
      "max": [
        0.8536932468414307,
        1.0000001192092896
      ],
      "min": [
        0.12642045319080353,
        0.0
      ],
      "type": "VEC2"
    },
    {
      "bufferView": 1,
      "byteOffset": 3669792,
      "componentType": 5126,
      "count": 65532,
      "max": [
        0.8536932468414307,
        1.0000001192092896
      ],
      "min": [
        0.12642045319080353,
        0.0
      ],
      "type": "VEC2"
    },
    {
      "bufferView": 0,
      "byteOffset": 1535484,
      "componentType": 5125,
      "count": 380595,
      "type": "SCALAR"
    },
    {
      "bufferView": 2,
      "byteOffset": 3145536,
      "componentType": 5126,
      "count": 59438,
      "max": [
        1.3235830068588257,
        1.1715428829193115,
        1.694678783416748
      ],
      "min": [
        -1.1968016624450684,
        -1.6817032098770142,
        -0.9792263507843018
      ],
      "type": "VEC3"
    },
    {
      "bufferView": 2,
      "byteOffset": 3858792,
      "componentType": 5126,
      "count": 59438,
      "max": [
        0.790664553642273,
        0.6900909543037415,
        1.0
      ],
      "min": [
        -0.7115485072135925,
        -1.0,
        -0.5692702531814575
      ],
      "type": "VEC3"
    },
    {
      "bufferView": 3,
      "byteOffset": 2097024,
      "componentType": 5126,
      "count": 59438,
      "max": [
        0.4331716299057007,
        0.8136815428733826,
        1.0,
        1.0
      ],
      "min": [
        -1.0,
        -0.5692703127861023,
        -0.7115485072135925,
        1.0
      ],
      "type": "VEC4"
    },
    {
      "bufferView": 1,
      "byteOffset": 4194048,
      "componentType": 5126,
      "count": 59438,
      "max": [
        0.8750001192092896,
        1.0000001192092896
      ],
      "min": [
        0.3963068127632141,
        0.5
      ],
      "type": "VEC2"
    },
    {
      "bufferView": 1,
      "byteOffset": 4669552,
      "componentType": 5126,
      "count": 59438,
      "max": [
        0.8750001192092896,
        1.0000001192092896
      ],
      "min": [
        0.3963068127632141,
        0.5
      ],
      "type": "VEC2"
    },
    {
      "bufferView": 1,
      "byteOffset": 5145056,
      "componentType": 5126,
      "count": 59438,
      "max": [
        0.8750001192092896,
        1.0000001192092896
      ],
      "min": [
        0.3963068127632141,
        0.5
      ],
      "type": "VEC2"
    },
    {
      "bufferView": 1,
      "byteOffset": 5620560,
      "componentType": 5126,
      "count": 59438,
      "max": [
        0.8750001192092896,
        1.0000001192092896
      ],
      "min": [
        0.3963068127632141,
        0.5
      ],
      "type": "VEC2"
    },
    {
      "bufferView": 0,
      "byteOffset": 3057864,
      "componentType": 5125,
      "count": 350670,
      "type": "SCALAR"
    },
    {
      "bufferView": 4,
      "componentType": 5126,
      "count": 401,
      "max": [
        8.333333015441895
      ],
      "min": [
        0.0
      ],
      "type": "SCALAR"
    },
    {
      "bufferView": 6,
      "componentType": 5126,
      "count": 401,
      "max": [
        0.5000000596046448,
        0.7071067094802856,
        0.7071068286895752,
        0.7071067094802856
      ],
      "min": [
        -0.7071068286895752,
        -0.4999999701976776,
        -0.5000000596046448,
        -0.5
      ],
      "type": "VEC4"
    },
    {
      "bufferView": 4,
      "byteOffset": 1604,
      "componentType": 5126,
      "count": 2,
      "max": [
        0.0416666679084301
      ],
      "min": [
        0.0
      ],
      "type": "SCALAR"
    },
    {
      "bufferView": 5,
      "componentType": 5126,
      "count": 2,
      "max": [
        57.393150329589844,
        57.393150329589844,
        57.393150329589844
      ],
      "min": [
        57.39314651489258,
        57.39314651489258,
        57.393150329589844
      ],
      "type": "VEC3"
    },
    {
      "bufferView": 4,
      "byteOffset": 1612,
      "componentType": 5126,
      "count": 2,
      "max": [
        0.0416666679084301
      ],
      "min": [
        0.0
      ],
      "type": "SCALAR"
    },
    {
      "bufferView": 6,
      "byteOffset": 6416,
      "componentType": 5126,
      "count": 2,
      "max": [
        -0.7070196270942688,
        0.0,
        0.0,
        0.7071067094802856
      ],
      "min": [
        -0.7071068286895752,
        -0.01110675185918808,
        -0.011106753721833229,
        0.7070195078849792
      ],
      "type": "VEC4"
    }
  ],
  "animations": [
    {
      "channels": [
        {
          "sampler": 0,
          "target": {
            "node": 4,
            "path": "rotation"
          }
        }
      ],
      "name": "Earth|EarthAction",
      "samplers": [
        {
          "input": 24,
          "interpolation": "LINEAR",
          "output": 25
        }
      ]
    },
    {
      "channels": [
        {
          "sampler": 0,
          "target": {
            "node": 4,
            "path": "scale"
          }
        },
        {
          "sampler": 1,
          "target": {
            "node": 4,
            "path": "rotation"
          }
        }
      ],
      "name": "Earth|Shader NodetreeAction",
      "samplers": [
        {
          "input": 26,
          "interpolation": "LINEAR",
          "output": 27
        },
        {
          "input": 28,
          "interpolation": "LINEAR",
          "output": 29
        }
      ]
    }
  ],
  "asset": {
    "extras": {
      "author": "denis_cliofas (https://sketchfab.com/denis_cliofas)",
      "license": "CC-BY-4.0 (http://creativecommons.org/licenses/by/4.0/)",
      "source": "https://sketchfab.com/3d-models/earth-3684eb40fb7e42208089874e6286b9e9",
      "title": "Earth"
    },
    "generator": "Sketchfab-12.64.0",
    "version": "2.0"
  },
  "bufferViews": [
    {
      "buffer": 0,
      "byteLength": 4460544,
      "name": "floatBufferViews",
      "target": 34963
    },
    {
      "buffer": 0,
      "byteLength": 6096064,
      "byteOffset": 4460544,
      "byteStride": 8,
      "name": "floatBufferViews",
      "target": 34962
    },
    {
      "buffer": 0,
      "byteLength": 4572048,
      "byteOffset": 10556608,
      "byteStride": 12,
      "name": "floatBufferViews",
      "target": 34962
    },
    {
      "buffer": 0,
      "byteLength": 3048032,
      "byteOffset": 15128656,
      "byteStride": 16,
      "name": "floatBufferViews",
      "target": 34962
    },
    {
      "buffer": 0,
      "byteLength": 1620,
      "byteOffset": 18176688,
      "name": "floatBufferViews"
    },
    {
      "buffer": 0,
      "byteLength": 24,
      "byteOffset": 18178308,
      "byteStride": 12,
      "name": "floatBufferViews"
    },
    {
      "buffer": 0,
      "byteLength": 6448,
      "byteOffset": 18178332,
      "byteStride": 16,
      "name": "floatBufferViews"
    }
  ],
  "buffers": [
    {
      "byteLength": 18184780,
      "uri": "scene.bin"
    }
  ],
  "images": [
    {
      "uri": "textures/Earth_baseColor.png"
    },
    {
      "uri": "textures/Earth_metallicRoughness.png"
    },
    {
      "uri": "textures/Earth_emissive.png"
    },
    {
      "uri": "textures/Earth_normal.png"
    }
  ],
  "materials": [
    {
      "doubleSided": true,
      "emissiveFactor": [
        1.0,
        1.0,
        1.0
      ],
      "emissiveTexture": {
        "index": 2
      },
      "name": "Earth",
      "normalTexture": {
        "index": 3
      },
      "pbrMetallicRoughness": {
        "baseColorTexture": {
          "index": 0
        },
        "metallicFactor": 0.0,
        "metallicRoughnessTexture": {
          "index": 1
        }
      }
    }
  ],
  "meshes": [
    {
      "name": "Earth_Earth_0",
      "primitives": [
        {
          "attributes": {
            "NORMAL": 1,
            "POSITION": 0,
            "TANGENT": 2,
            "TEXCOORD_0": 3,
            "TEXCOORD_1": 4,
            "TEXCOORD_2": 5,
            "TEXCOORD_3": 6
          },
          "indices": 7,
          "material": 0,
          "mode": 4
        }
      ]
    },
    {
      "name": "Earth_Earth_0",
      "primitives": [
        {
          "attributes": {
            "NORMAL": 9,
            "POSITION": 8,
            "TANGENT": 10,
            "TEXCOORD_0": 11,
            "TEXCOORD_1": 12,
            "TEXCOORD_2": 13,
            "TEXCOORD_3": 14
          },
          "indices": 15,
          "material": 0,
          "mode": 4
        }
      ]
    },
    {
      "name": "Earth_Earth_0",
      "primitives": [
        {
          "attributes": {
            "NORMAL": 17,
            "POSITION": 16,
            "TANGENT": 18,
            "TEXCOORD_0": 19,
            "TEXCOORD_1": 20,
            "TEXCOORD_2": 21,
            "TEXCOORD_3": 22
          },
          "indices": 23,
          "material": 0,
          "mode": 4
        }
      ]
    }
  ],
  "nodes": [
    {
      "children": [
        1
      ],
      "matrix": [
        0.0019964692182838917,
        0.0,
        0.0,
        0.0,
        0.0,
        4.433052188188328e-19,
        -0.0019964692182838917,
        0.0,
        0.0,
        0.0019964692182838917,
        4.433052188188328e-19,
        0.0,
        0.0,
        0.0,
        0.0,
        1.0
      ],
      "name": "Sketchfab_model"
    },
    {
      "children": [
        2
      ],
      "matrix": [
        1.0,
        0.0,
        0.0,
        0.0,
        0.0,
        0.0,
        1.0,
        0.0,
        0.0,
        -1.0,
        0.0,
        0.0,
        0.0,
        0.0,
        0.0,
        1.0
      ],
      "name": "fc09fa6deb6c45f687e724438fed81ad.fbx"
    },
    {
      "children": [
        3
      ],
      "name": "Object_2"
    },
    {
      "children": [
        4
      ],
      "name": "RootNode"
    },
    {
      "children": [
        5,
        6,
        7
      ],
      "name": "Earth",
      "rotation": [
        -0.7071068286895752,
        -6.181724643283815e-08,
        -6.18172535382655e-08,
        0.7071067094802856
      ],
      "scale": [
        57.393150329589844,
        57.393150329589844,
        57.393150329589844
      ]
    },
    {
      "mesh": 0,
      "name": "Earth_Earth_0"
    },
    {
      "mesh": 1,
      "name": "Earth_Earth_0"
    },
    {
      "mesh": 2,
      "name": "Earth_Earth_0"
    }
  ],
  "samplers": [
    {
      "magFilter": 9729,
      "minFilter": 9987,
      "wrapS": 10497,
      "wrapT": 10497
    }
  ],
  "scene": 0,
  "scenes": [
    {
      "name": "Sketchfab_Scene",
      "nodes": [
        0
      ]
    }
  ],
  "textures": [
    {
      "sampler": 0,
      "source": 0
    },
    {
      "sampler": 0,
      "source": 1
    },
    {
      "sampler": 0,
      "source": 2
    },
    {
      "sampler": 0,
      "source": 3
    }
  ]
}
