{
  "accessors": [
    {
      "bufferView": 2,
      "componentType": 5126,
      "count": 2357,
      "max": [
        636.0999755859375,
        636.0999755859375,
        636.100341796875
      ],
      "min": [
        -636.099853515625,
        -636.0999755859375,
        -636.100341796875
      ],
      "type": "VEC3"
    },
    {
      "bufferView": 2,
      "byteOffset": 28284,
      "componentType": 5126,
      "count": 2357,
      "max": [
        1.0,
        1.0,
        1.0
      ],
      "min": [
        -1.0,
        -1.0,
        -1.0
      ],
      "type": "VEC3"
    },
    {
      "bufferView": 1,
      "componentType": 5126,
      "count": 2357,
      "max": [
        1.0000001192092896,
        1.0000001192092896
      ],
      "min": [
        0.0,
        0.0
      ],
      "type": "VEC2"
    },
    {
      "bufferView": 0,
      "componentType": 5125,
      "count": 11520,
      "type": "SCALAR"
    },
    {
      "bufferView": 2,
      "byteOffset": 56568,
      "componentType": 5126,
      "count": 2357,
      "max": [
        636.0999755859375,
        636.0999755859375,
        636.100341796875
      ],
      "min": [
        -636.099853515625,
        -636.0999755859375,
        -636.100341796875
      ],
      "type": "VEC3"
    },
    {
      "bufferView": 2,
      "byteOffset": 84852,
      "componentType": 5126,
      "count": 2357,
      "max": [
        1.0,
        1.0,
        1.0
      ],
      "min": [
        -1.0,
        -1.0,
        -1.0
      ],
      "type": "VEC3"
    },
    {
      "bufferView": 1,
      "byteOffset": 18856,
      "componentType": 5126,
      "count": 2357,
      "max": [
        1.0000001192092896,
        1.0000001192092896
      ],
      "min": [
        0.0,
        0.0
      ],
      "type": "VEC2"
    },
    {
      "bufferView": 0,
      "byteOffset": 46080,
      "componentType": 5125,
      "count": 11520,
      "type": "SCALAR"
    },
    {
      "bufferView": 2,
      "byteOffset": 113136,
      "componentType": 5126,
      "count": 2357,
      "max": [
        636.0999755859375,
        636.0999755859375,
        636.100341796875
      ],
      "min": [
        -636.099853515625,
        -636.0999755859375,
        -636.100341796875
      ],
      "type": "VEC3"
    },
    {
      "bufferView": 2,
      "byteOffset": 141420,
      "componentType": 5126,
      "count": 2357,
      "max": [
        1.0,
        1.0,
        1.0
      ],
      "min": [
        -1.0,
        -1.0,
        -1.0
      ],
      "type": "VEC3"
    },
    {
      "bufferView": 1,
      "byteOffset": 37712,
      "componentType": 5126,
      "count": 2357,
      "max": [
        1.0000001192092896,
        1.0000001192092896
      ],
      "min": [
        0.0,
        0.0
      ],
      "type": "VEC2"
    },
    {
      "bufferView": 0,
      "byteOffset": 92160,
      "componentType": 5125,
      "count": 11520,
      "type": "SCALAR"
    },
    {
      "bufferView": 2,
      "byteOffset": 169704,
      "componentType": 5126,
      "count": 2357,
      "max": [
        636.0999755859375,
        636.0999755859375,
        636.100341796875
      ],
      "min": [
        -636.099853515625,
        -636.0999755859375,
        -636.100341796875
      ],
      "type": "VEC3"
    },
    {
      "bufferView": 2,
      "byteOffset": 197988,
      "componentType": 5126,
      "count": 2357,
      "max": [
        1.0,
        1.0,
        1.0
      ],
      "min": [
        -1.0,
        -1.0,
        -1.0
      ],
      "type": "VEC3"
    },
    {
      "bufferView": 1,
      "byteOffset": 56568,
      "componentType": 5126,
      "count": 2357,
      "max": [
        1.0000001192092896,
        1.0000001192092896
      ],
      "min": [
        0.0,
        0.0
      ],
      "type": "VEC2"
    },
    {
      "bufferView": 0,
      "byteOffset": 138240,
      "componentType": 5125,
      "count": 11520,
      "type": "SCALAR"
    }
  ],
  "asset": {
    "extras": {
      "author": "Shady Tex (https://sketchfab.com/ShadyTex4u)",
      "license": "CC-BY-4.0 (http://creativecommons.org/licenses/by/4.0/)",
      "source": "https://sketchfab.com/3d-models/realistic-earth-8k-899b7a8202ed48f0a0903c33cb5501b6",
      "title": "Realistic Earth 8K"
    },
    "generator": "Sketchfab-15.32.0",
    "version": "2.0"
  },
  "bufferViews": [
    {
      "buffer": 0,
      "byteLength": 184320,
      "name": "floatBufferViews",
      "target": 34963
    },
    {
      "buffer": 0,
      "byteLength": 75424,
      "byteOffset": 184320,
      "byteStride": 8,
      "name": "floatBufferViews",
      "target": 34962
    },
    {
      "buffer": 0,
      "byteLength": 226272,
      "byteOffset": 259744,
      "byteStride": 12,
      "name": "floatBufferViews",
      "target": 34962
    }
  ],
  "buffers": [
    {
      "byteLength": 486016,
      "uri": "scene.bin"
    }
  ],
  "extensionsUsed": [
    "KHR_materials_emissive_strength",
    "KHR_materials_transmission"
  ],
  "images": [
    {
      "uri": "textures/Material.001_baseColor.png"
    },
    {
      "uri": "textures/Material.001_emissive.png"
    },
    {
      "uri": "textures/Material.003_baseColor.png"
    },
    {
      "uri": "textures/Material.003_metallicRoughness.png"
    }
  ],
  "materials": [
    {
      "doubleSided": true,
      "emissiveFactor": [
        1.0,
        1.0,
        1.0
      ],
      "emissiveTexture": {
        "index": 1
      },
      "extensions": {
        "KHR_materials_emissive_strength": {
          "emissiveStrength": 10.0
        }
      },
      "name": "Material.001",
      "pbrMetallicRoughness": {
        "baseColorTexture": {
          "index": 0
        },
        "metallicFactor": 0.0,
        "roughnessFactor": 0.8211145618000169
      }
    },
    {
      "alphaCutoff": 1.0,
      "alphaMode": "MASK",
      "doubleSided": true,
      "name": "Material.003",
      "pbrMetallicRoughness": {
        "baseColorTexture": {
          "index": 2
        },
        "metallicFactor": 0.0,
        "metallicRoughnessTexture": {
          "index": 3
        }
      }
    },
    {
      "alphaMode": "BLEND",
      "doubleSided": true,
      "extensions": {
        "KHR_materials_emissive_strength": {
          "emissiveStrength": 1.3962815500593497
        },
        "KHR_materials_transmission": {
          "transmissionFactor": 1.0
        }
      },
      "name": "Material.005",
      "pbrMetallicRoughness": {
        "baseColorFactor": [
          0.8,
          0.8,
          0.8,
          0.25
        ],
        "metallicFactor": 0.0,
        "roughnessFactor": 0.8040408205773457
      }
    }
  ],
  "meshes": [
    {
      "name": "Surface_Material.001_0",
      "primitives": [
        {
          "attributes": {
            "NORMAL": 1,
            "POSITION": 0,
            "TEXCOORD_0": 2
          },
          "indices": 3,
          "material": 0,
          "mode": 4
        }
      ]
    },
    {
      "name": "atmos_Material.003_0",
      "primitives": [
        {
          "attributes": {
            "NORMAL": 5,
            "POSITION": 4,
            "TEXCOORD_0": 6
          },
          "indices": 7,
          "material": 1,
          "mode": 4
        }
      ]
    },
    {
      "name": "clouds_Material.005_0",
      "primitives": [
        {
          "attributes": {
            "NORMAL": 9,
            "POSITION": 8,
            "TEXCOORD_0": 10
          },
          "indices": 11,
          "material": 2,
          "mode": 4
        }
      ]
    },
    {
      "name": "atmos.001_Material.003_0",
      "primitives": [
        {
          "attributes": {
            "NORMAL": 13,
            "POSITION": 12,
            "TEXCOORD_0": 14
          },
          "indices": 15,
          "material": 1,
          "mode": 4
        }
      ]
    }
  ],
  "nodes": [
    {
      "children": [
        1
      ],
      "matrix": [
        1.0,
        0.0,
        0.0,
        0.0,
        0.0,
        2.220446049250313e-16,
        -1.0,
        0.0,
        0.0,
        1.0,
        2.220446049250313e-16,
        0.0,
        0.0,
        0.0,
        0.0,
        1.0
      ],
      "name": "Sketchfab_model"
    },
    {
      "children": [
        2
      ],
      "matrix": [
        0.009999999776482582,
        0.0,
        0.0,
        0.0,
        0.0,
        0.0,
        0.009999999776482582,
        0.0,
        0.0,
        -0.009999999776482582,
        0.0,
        0.0,
        0.0,
        0.0,
        0.0,
        1.0
      ],
      "name": "b9fa1669a74e42ef9a82a705a13f5781.fbx"
    },
    {
      "children": [
        3,
        5,
        8,
        10,
        12,
        14
      ],
      "name": "RootNode"
    },
    {
      "children": [
        4
      ],
      "matrix": [
        -23.882258080190155,
        -4.750974880174397e-06,
        -97.10632187963444,
        0.0,
        -97.10632187963375,
        -1.1767884933178152e-05,
        23.88225808019055,
        0.0,
        -1.2562000289983999e-05,
        99.9999999999992,
        -1.8030603232688236e-06,
        0.0,
        0.0,
        0.0,
        0.0,
        1.0
      ],
      "name": "Surface"
    },
    {
      "mesh": 0,
      "name": "Surface_Material.001_0"
    },
    {
      "children": [
        6
      ],
      "matrix": [
        68.66885936715299,
        -63.34437168828045,
        -35.6662070962296,
        0.0,
        -42.23417166644982,
        5.169849932954362,
        -90.49611812293153,
        0.0,
        59.168082296740096,
        77.20597332815287,
        -23.20289192966883,
        0.0,
        0.0,
        0.0,
        0.0,
        1.0
      ],
      "name": "Sun"
    },
    {
      "children": [
        7
      ],
      "matrix": [
        1.0,
        0.0,
        0.0,
        0.0,
        0.0,
        2.220446049250313e-16,
        1.0,
        0.0,
        0.0,
        -1.0,
        2.220446049250313e-16,
        0.0,
        0.0,
        0.0,
        0.0,
        1.0
      ],
      "name": "Object_6"
    },
    {
      "name": "Object_7"
    },
    {
      "children": [
        9
      ],
      "matrix": [
        100.21133648952983,
        -17.775235748792735,
        1.460630315871768,
        0.0,
        -5.527410997110523,
        -38.87830847611049,
        -93.905934882583,
        0.0,
        16.95699648290094,
        92.373746597524,
        -39.24207036283531,
        0.0,
        0.0,
        0.0,
        0.0,
        1.0
      ],
      "name": "atmos"
    },
    {
      "mesh": 1,
      "name": "atmos_Material.003_0"
    },
    {
      "children": [
        11
      ],
      "matrix": [
        50.01666769456432,
        -8.115742478474768,
        86.21176066381318,
        0.0,
        2.910163960993953,
        99.66113335502278,
        7.693467626012273,
        0.0,
        -86.54399978306792,
        -1.339112547714793,
        50.08335930359399,
        0.0,
        -110950.4140625,
        54326.8359375,
        -139983.4375,
        1.0
      ],
      "name": "Camera"
    },
    {
      "name": "Object_11"
    },
    {
      "children": [
        13
      ],
      "matrix": [
        46.79193339947617,
        59.51828437281974,
        66.05024563676609,
        0.0,
        0.13931762848125392,
        74.58973592315967,
        -67.31196852183415,
        0.0,
        -88.91025424610028,
        31.440291250206773,
        34.65559405195888,
        0.0,
        0.0,
        0.0,
        0.0,
        1.0
      ],
      "name": "clouds"
    },
    {
      "mesh": 2,
      "name": "clouds_Material.005_0"
    },
    {
      "children": [
        15
      ],
      "matrix": [
        101.82331941429372,
        -18.06116524054939,
        1.4841249057098516,
        0.0,
        -5.61632440540827,
        -39.50369557493901,
        -95.41648346465956,
        0.0,
        17.229761244917096,
        93.85964266529363,
        -39.87330638327958,
        0.0,
        0.0,
        0.0,
        0.0,
        1.0
      ],
      "name": "atmos.001"
    },
    {
      "mesh": 3,
      "name": "atmos.001_Material.003_0"
    }
  ],
  "samplers": [
    {
      "magFilter": 9729,
      "minFilter": 9987,
      "wrapS": 10497,
      "wrapT": 10497
    }
  ],
  "scene": 0,
  "scenes": [
    {
      "name": "Sketchfab_Scene",
      "nodes": [
        0
      ]
    }
  ],
  "textures": [
    {
      "sampler": 0,
      "source": 0
    },
    {
      "sampler": 0,
      "source": 1
    },
    {
      "sampler": 0,
      "source": 2
    },
    {
      "sampler": 0,
      "source": 3
    }
  ]
}
